<mxfile host="app.diagrams.net" agent="Mozilla/5.0 (Windows NT 10.0; Win64; x64) AppleWebKit/537.36 (KHTML, like Gecko) Chrome/131.0.0.0 Safari/537.36 Edg/131.0.0.0" version="25.0.3">
  <diagram id="C5RBs43oDa-KdzZeNtuy" name="Page-1">
    <mxGraphModel dx="1325" dy="273" grid="1" gridSize="10" guides="1" tooltips="1" connect="1" arrows="1" fold="1" page="1" pageScale="1" pageWidth="827" pageHeight="1169" math="0" shadow="0">
      <root>
        <mxCell id="WIyWlLk6GJQsqaUBKTNV-0" />
        <mxCell id="WIyWlLk6GJQsqaUBKTNV-1" parent="WIyWlLk6GJQsqaUBKTNV-0" />
        <mxCell id="mvioNwK95yMqdUQ73LqQ-36" value="" style="swimlane;fontFamily=Sarabun;fontSource=https%3A%2F%2Ffonts.googleapis.com%2Fcss%3Ffamily%3DSarabun;" parent="WIyWlLk6GJQsqaUBKTNV-1" vertex="1">
          <mxGeometry x="-740" y="60" width="830" height="1670" as="geometry" />
        </mxCell>
        <mxCell id="pXdczCPLqUhGzNIIeVMN-3" style="edgeStyle=orthogonalEdgeStyle;rounded=0;orthogonalLoop=1;jettySize=auto;html=1;" parent="mvioNwK95yMqdUQ73LqQ-36" source="mvioNwK95yMqdUQ73LqQ-35" edge="1">
          <mxGeometry relative="1" as="geometry">
            <mxPoint x="320" y="130" as="targetPoint" />
          </mxGeometry>
        </mxCell>
        <mxCell id="mvioNwK95yMqdUQ73LqQ-35" value="&lt;font data-font-src=&quot;https://fonts.googleapis.com/css?family=Sarabun&quot; face=&quot;Sarabun&quot;&gt;Start&lt;/font&gt;" style="ellipse;whiteSpace=wrap;html=1;" parent="mvioNwK95yMqdUQ73LqQ-36" vertex="1">
          <mxGeometry x="255" y="40" width="130" height="30" as="geometry" />
        </mxCell>
        <mxCell id="uuqHhotu2dbNazjetL3C-1" style="edgeStyle=orthogonalEdgeStyle;rounded=0;orthogonalLoop=1;jettySize=auto;html=1;" edge="1" parent="mvioNwK95yMqdUQ73LqQ-36" source="uuqHhotu2dbNazjetL3C-0">
          <mxGeometry relative="1" as="geometry">
            <mxPoint x="320" y="250" as="targetPoint" />
          </mxGeometry>
        </mxCell>
        <mxCell id="uuqHhotu2dbNazjetL3C-0" value="Read name1, age2" style="shape=parallelogram;perimeter=parallelogramPerimeter;whiteSpace=wrap;html=1;fixedSize=1;" vertex="1" parent="mvioNwK95yMqdUQ73LqQ-36">
          <mxGeometry x="260" y="130" width="120" height="60" as="geometry" />
        </mxCell>
        <mxCell id="uuqHhotu2dbNazjetL3C-3" style="edgeStyle=orthogonalEdgeStyle;rounded=0;orthogonalLoop=1;jettySize=auto;html=1;" edge="1" parent="mvioNwK95yMqdUQ73LqQ-36" source="uuqHhotu2dbNazjetL3C-2">
          <mxGeometry relative="1" as="geometry">
            <mxPoint x="315" y="430" as="targetPoint" />
          </mxGeometry>
        </mxCell>
        <mxCell id="uuqHhotu2dbNazjetL3C-2" value="Read name2, age2" style="shape=parallelogram;perimeter=parallelogramPerimeter;whiteSpace=wrap;html=1;fixedSize=1;" vertex="1" parent="mvioNwK95yMqdUQ73LqQ-36">
          <mxGeometry x="255" y="250" width="120" height="60" as="geometry" />
        </mxCell>
        <mxCell id="uuqHhotu2dbNazjetL3C-5" style="edgeStyle=orthogonalEdgeStyle;rounded=0;orthogonalLoop=1;jettySize=auto;html=1;" edge="1" parent="mvioNwK95yMqdUQ73LqQ-36" source="uuqHhotu2dbNazjetL3C-4">
          <mxGeometry relative="1" as="geometry">
            <mxPoint x="315" y="540" as="targetPoint" />
          </mxGeometry>
        </mxCell>
        <mxCell id="uuqHhotu2dbNazjetL3C-4" value="Display &quot;Before swap&quot;" style="shape=parallelogram;perimeter=parallelogramPerimeter;whiteSpace=wrap;html=1;fixedSize=1;" vertex="1" parent="mvioNwK95yMqdUQ73LqQ-36">
          <mxGeometry x="227.5" y="430" width="175" height="60" as="geometry" />
        </mxCell>
        <mxCell id="uuqHhotu2dbNazjetL3C-23" style="edgeStyle=orthogonalEdgeStyle;rounded=0;orthogonalLoop=1;jettySize=auto;html=1;" edge="1" parent="mvioNwK95yMqdUQ73LqQ-36" source="uuqHhotu2dbNazjetL3C-6">
          <mxGeometry relative="1" as="geometry">
            <mxPoint x="315" y="810" as="targetPoint" />
          </mxGeometry>
        </mxCell>
        <mxCell id="uuqHhotu2dbNazjetL3C-6" value="Display After swap&lt;div&gt;name1, age1&lt;/div&gt;&lt;div&gt;name2, age2&lt;/div&gt;" style="shape=parallelogram;perimeter=parallelogramPerimeter;whiteSpace=wrap;html=1;fixedSize=1;" vertex="1" parent="mvioNwK95yMqdUQ73LqQ-36">
          <mxGeometry x="227.5" y="650" width="175" height="60" as="geometry" />
        </mxCell>
        <mxCell id="uuqHhotu2dbNazjetL3C-8" style="edgeStyle=orthogonalEdgeStyle;rounded=0;orthogonalLoop=1;jettySize=auto;html=1;entryX=0.5;entryY=0;entryDx=0;entryDy=0;" edge="1" parent="mvioNwK95yMqdUQ73LqQ-36" source="uuqHhotu2dbNazjetL3C-7" target="uuqHhotu2dbNazjetL3C-6">
          <mxGeometry relative="1" as="geometry" />
        </mxCell>
        <mxCell id="uuqHhotu2dbNazjetL3C-7" value="swap(age1,age2)" style="shape=process;whiteSpace=wrap;html=1;backgroundOutline=1;" vertex="1" parent="mvioNwK95yMqdUQ73LqQ-36">
          <mxGeometry x="255" y="540" width="120" height="60" as="geometry" />
        </mxCell>
        <mxCell id="uuqHhotu2dbNazjetL3C-12" style="edgeStyle=orthogonalEdgeStyle;rounded=0;orthogonalLoop=1;jettySize=auto;html=1;" edge="1" parent="mvioNwK95yMqdUQ73LqQ-36" source="uuqHhotu2dbNazjetL3C-11">
          <mxGeometry relative="1" as="geometry">
            <mxPoint x="695" y="140" as="targetPoint" />
          </mxGeometry>
        </mxCell>
        <mxCell id="uuqHhotu2dbNazjetL3C-11" value="&lt;font data-font-src=&quot;https://fonts.googleapis.com/css?family=Sarabun&quot; face=&quot;Sarabun&quot;&gt;swap()&lt;/font&gt;" style="ellipse;whiteSpace=wrap;html=1;" vertex="1" parent="mvioNwK95yMqdUQ73LqQ-36">
          <mxGeometry x="630" y="40" width="130" height="30" as="geometry" />
        </mxCell>
        <mxCell id="uuqHhotu2dbNazjetL3C-15" style="edgeStyle=orthogonalEdgeStyle;rounded=0;orthogonalLoop=1;jettySize=auto;html=1;" edge="1" parent="mvioNwK95yMqdUQ73LqQ-36" source="uuqHhotu2dbNazjetL3C-13">
          <mxGeometry relative="1" as="geometry">
            <mxPoint x="695" y="270" as="targetPoint" />
          </mxGeometry>
        </mxCell>
        <mxCell id="uuqHhotu2dbNazjetL3C-13" value="Declare&lt;div&gt;temp variable&lt;/div&gt;" style="rounded=0;whiteSpace=wrap;html=1;" vertex="1" parent="mvioNwK95yMqdUQ73LqQ-36">
          <mxGeometry x="635" y="140" width="120" height="60" as="geometry" />
        </mxCell>
        <mxCell id="uuqHhotu2dbNazjetL3C-16" value="age1 store in temp&lt;div&gt;&lt;br&gt;&lt;/div&gt;" style="rounded=0;whiteSpace=wrap;html=1;" vertex="1" parent="mvioNwK95yMqdUQ73LqQ-36">
          <mxGeometry x="635" y="270" width="120" height="60" as="geometry" />
        </mxCell>
        <mxCell id="uuqHhotu2dbNazjetL3C-17" value="&lt;div&gt;age2 store in age1&lt;/div&gt;" style="rounded=0;whiteSpace=wrap;html=1;" vertex="1" parent="mvioNwK95yMqdUQ73LqQ-36">
          <mxGeometry x="640" y="410" width="120" height="60" as="geometry" />
        </mxCell>
        <mxCell id="uuqHhotu2dbNazjetL3C-22" style="edgeStyle=orthogonalEdgeStyle;rounded=0;orthogonalLoop=1;jettySize=auto;html=1;entryX=0.5;entryY=0;entryDx=0;entryDy=0;" edge="1" parent="mvioNwK95yMqdUQ73LqQ-36" source="uuqHhotu2dbNazjetL3C-18" target="uuqHhotu2dbNazjetL3C-21">
          <mxGeometry relative="1" as="geometry">
            <mxPoint x="695" y="630" as="targetPoint" />
          </mxGeometry>
        </mxCell>
        <mxCell id="uuqHhotu2dbNazjetL3C-18" value="temp store in age2" style="rounded=0;whiteSpace=wrap;html=1;" vertex="1" parent="mvioNwK95yMqdUQ73LqQ-36">
          <mxGeometry x="635" y="550" width="120" height="60" as="geometry" />
        </mxCell>
        <mxCell id="uuqHhotu2dbNazjetL3C-19" style="edgeStyle=orthogonalEdgeStyle;rounded=0;orthogonalLoop=1;jettySize=auto;html=1;entryX=0.462;entryY=0.005;entryDx=0;entryDy=0;entryPerimeter=0;" edge="1" parent="mvioNwK95yMqdUQ73LqQ-36" source="uuqHhotu2dbNazjetL3C-16" target="uuqHhotu2dbNazjetL3C-17">
          <mxGeometry relative="1" as="geometry" />
        </mxCell>
        <mxCell id="uuqHhotu2dbNazjetL3C-20" style="edgeStyle=orthogonalEdgeStyle;rounded=0;orthogonalLoop=1;jettySize=auto;html=1;entryX=0.544;entryY=-0.029;entryDx=0;entryDy=0;entryPerimeter=0;" edge="1" parent="mvioNwK95yMqdUQ73LqQ-36" source="uuqHhotu2dbNazjetL3C-17" target="uuqHhotu2dbNazjetL3C-18">
          <mxGeometry relative="1" as="geometry" />
        </mxCell>
        <mxCell id="uuqHhotu2dbNazjetL3C-21" value="&lt;font data-font-src=&quot;https://fonts.googleapis.com/css?family=Sarabun&quot; face=&quot;Sarabun&quot;&gt;Return void&lt;/font&gt;" style="ellipse;whiteSpace=wrap;html=1;" vertex="1" parent="mvioNwK95yMqdUQ73LqQ-36">
          <mxGeometry x="630" y="670" width="130" height="30" as="geometry" />
        </mxCell>
        <mxCell id="uuqHhotu2dbNazjetL3C-24" value="&lt;font data-font-src=&quot;https://fonts.googleapis.com/css?family=Sarabun&quot; face=&quot;Sarabun&quot;&gt;End&lt;/font&gt;" style="ellipse;whiteSpace=wrap;html=1;" vertex="1" parent="mvioNwK95yMqdUQ73LqQ-36">
          <mxGeometry x="250" y="810" width="130" height="30" as="geometry" />
        </mxCell>
      </root>
    </mxGraphModel>
  </diagram>
</mxfile>
